<svg xmlns="http://www.w3.org/2000/svg" xmlns:xlink="http://www.w3.org/1999/xlink" height="53px" width="53px">

<g id="logo" transform="matrix(1,0,0,1,1,1)">
	<path d="M6.62,4.12 L44.06,4.12 C47.37,4.12 50.06,6.80 50.06,10.12 L50.06,44.72 C50.06,48.03 47.37,50.72 44.06,50.72 L6.62,50.72 C3.30,50.72 0.62,48.03 0.62,44.72 L0.62,10.12 C0.62,6.80 3.30,4.12 6.62,4.12 zM10.27,6.79 C8.68,6.79 7.39,8.09 7.39,9.68 C7.39,11.28 8.68,12.57 10.27,12.57 C11.87,12.57 13.16,11.28 13.16,9.68 C13.16,8.09 11.87,6.79 10.27,6.79 zM40.38,6.66 C38.78,6.66 37.49,7.95 37.49,9.55 C37.49,11.14 38.78,12.44 40.38,12.44 C41.97,12.44 43.26,11.14 43.26,9.55 C43.26,7.95 41.97,6.66 40.38,6.66 zM25.42,6.74 C23.82,6.74 22.53,8.03 22.53,9.63 C22.53,11.22 23.82,12.52 25.42,12.52 C27.01,12.52 28.31,11.22 28.31,9.63 C28.31,8.03 27.01,6.74 25.42,6.74 z" fill="#e60505" fill-rule="nonzero" stroke="none" stroke-width="1" stroke-linecap="butt" stroke-linejoin="miter" stroke-miterlimit="10" stroke-dasharray="" stroke-dashoffset="0" font-family="none" font-weight="none" font-size="none" text-anchor="none" style="mix-blend-mode: normal" id="svg_3" />

	<rect transform="matrix(1,0,0,1,8.6,1)" width="3.3" height="10" fill="rgba(3,10,97,1)" stroke="none" stroke-linecap="butt" stroke-linejoin="miter" opacity="1" rx="1" id="svg_4"/>

	<rect transform="matrix(1,0,0,1,23.7,1)" width="3.3" height="10" fill="rgba(3,10,97,1)" stroke="none" stroke-linecap="butt" stroke-linejoin="miter" opacity="1" rx="1" id="svg_5"/>

	<rect transform="matrix(1,0,0,1,38.8,1)" width="3.3" height="10" fill="rgba(3,10,97,1)" stroke="none" stroke-linecap="butt" stroke-linejoin="miter" opacity="1" rx="1" id="svg_6"/>
	
	<text controller-class="Text_box" transform="matrix(1,0,0,1,5,35) " width="56" height="29" font-family="Merriweather Sans" font-size="25" font-style="italic" text-align="left" text-anchor="start" fill="rgba(255,255,255,1)" stroke="none" stroke-width="1.00" stroke-linecap="butt" stroke-linejoin="miter" opacity="1" style="" font-weight="700" id="svg_7"><tspan  newline="" id="svg_8"><![CDATA[App]]></tspan></text>
</g>

</svg>
